<svg xmlns="http://www.w3.org/2000/svg" width="31" height="20" viewBox="0 0 31 20"><g><g><g><path fill="#fa0" d="M15.281 17.882c-5.448 0-10.51-3.077-13.036-7.882C4.772 5.195 9.833 2.118 15.28 2.118c5.449 0 10.51 3.077 13.037 7.882-2.527 4.804-7.588 7.882-13.037 7.882zm15.21-8.264a1.133 1.133 0 0 0-.034-.078 16.874 16.874 0 0 0-6.1-6.886A16.778 16.778 0 0 0 15.282 0c-3.23 0-6.369.918-9.076 2.654A16.874 16.874 0 0 0 .12 9.51a1.06 1.06 0 0 0-.015.95 16.873 16.873 0 0 0 6.1 6.887A16.778 16.778 0 0 0 15.28 20c3.23 0 6.37-.918 9.077-2.654a16.874 16.874 0 0 0 6.1-6.886c.126-.264.138-.57.033-.842z"/></g><g><path fill="#fa0" d="M15.281 12.53a2.533 2.533 0 0 1-2.53-2.53 2.533 2.533 0 0 1 2.53-2.53 2.533 2.533 0 0 1 2.53 2.53 2.533 2.533 0 0 1-2.53 2.53zm0-7.179A4.654 4.654 0 0 0 10.633 10a4.654 4.654 0 0 0 4.648 4.648A4.654 4.654 0 0 0 19.93 10a4.654 4.654 0 0 0-4.649-4.649z"/></g></g></g></svg>