<svg xmlns="http://www.w3.org/2000/svg" width="25" height="20" viewBox="0 0 25 20"><g><g><g><g><path fill="#313131" d="M14.432 3.505a.37.37 0 0 1-.06-.733l7.976-1.33a.37.37 0 0 1 .122.727l-7.977 1.33a.337.337 0 0 1-.06.006z"/></g><g><path fill="#313131" d="M1.929 5.591a.37.37 0 0 1-.06-.732l8.038-1.342a.37.37 0 0 1 .122.727L1.99 5.586a.343.343 0 0 1-.061.005z"/></g></g><g><g><g><path fill="#313131" d="M23.583 10.842a3.814 3.814 0 0 1-3.79 3.44 3.813 3.813 0 0 1-3.79-3.44zm.755-.37a.369.369 0 0 0-.368-.368h-8.354a.369.369 0 0 0-.369.369 4.551 4.551 0 0 0 4.545 4.546 4.551 4.551 0 0 0 4.546-4.546z"/></g><g><path fill="#313131" d="M15.616 10.842a.37.37 0 0 1-.327-.54l4.177-8.003c.127-.244.526-.244.654 0l4.177 8.003a.37.37 0 0 1-.654.341l-3.85-7.376-3.85 7.376a.37.37 0 0 1-.327.199z"/></g></g><g><g><path fill="#313131" d="M8.337 13.227a3.813 3.813 0 0 1-3.79 3.44 3.813 3.813 0 0 1-3.791-3.44zm.755-.368a.369.369 0 0 0-.369-.37H.369a.369.369 0 0 0-.369.37 4.552 4.552 0 0 0 4.546 4.546 4.551 4.551 0 0 0 4.546-4.546z"/></g><g><path fill="#313131" d="M8.723 13.227a.37.37 0 0 1-.327-.198l-3.85-7.376-3.85 7.376a.37.37 0 0 1-.654-.341l4.177-8.003c.128-.244.527-.244.654 0l4.177 8.003a.37.37 0 0 1-.327.54z"/></g></g></g><g><path fill="#313131" d="M14.05 3.514a1.884 1.884 0 0 1-1.88 1.88 1.884 1.884 0 0 1-1.882-1.88c0-1.037.844-1.881 1.881-1.881 1.038 0 1.882.844 1.882 1.88zm.738-.001A2.622 2.622 0 0 0 12.17.895 2.622 2.622 0 0 0 9.55 3.513a2.622 2.622 0 0 0 2.62 2.619 2.621 2.621 0 0 0 2.618-2.62z"/></g><g><path fill="#313131" d="M12.17 20a.369.369 0 0 1-.37-.369V5.763a.369.369 0 0 1 .738 0v13.868a.369.369 0 0 1-.369.369z"/></g><g><path fill="#313131" d="M12.17 1.633a.369.369 0 0 1-.37-.369V.37a.369.369 0 0 1 .738 0v.895a.369.369 0 0 1-.369.369z"/></g><g><path fill="#313131" d="M17.034 20h-9.73a.369.369 0 0 1 0-.738h9.73a.369.369 0 0 1 0 .738z"/></g></g></g></svg>