<svg xmlns="http://www.w3.org/2000/svg" width="22" height="20" viewBox="0 0 22 20"><g><g><g><path fill="#313131" d="M20.634 8.04c-.41 1.726-1.36 3.299-2.746 4.545l-7.115 6.302-6.993-6.3c-1.388-1.25-2.338-2.821-2.748-4.547C.737 6.8.858 6.1.858 6.095l.006-.042C1.135 3.025 3.252.827 5.9.827c1.953 0 3.672 1.192 4.488 3.11l.384.902.383-.903c.803-1.888 2.613-3.108 4.613-3.108 2.646 0 4.763 2.198 5.04 5.265 0 .007.122.707-.173 1.947zm.996-2.076C21.313 2.508 18.85 0 15.766 0c-2.054 0-3.935 1.098-4.993 2.857C9.724 1.075 7.92 0 5.899 0 2.816 0 .352 2.507.036 5.963.011 6.116-.09 6.92.22 8.23c.45 1.89 1.487 3.608 3 4.97l7.548 6.8 7.677-6.8c1.513-1.362 2.55-3.08 3-4.97.312-1.31.21-2.114.185-2.266z"/></g><g><path fill="#313131" d="M6.666 2.533A4.171 4.171 0 0 0 2.5 6.699a.416.416 0 1 0 .834 0 3.337 3.337 0 0 1 3.333-3.333.416.416 0 1 0 0-.833z"/></g></g></g></svg>