<svg xmlns="http://www.w3.org/2000/svg" width="20" height="20" viewBox="0 0 20 20"><g><g><g><path fill="#7d7d7d" d="M15.898 5.86a1.76 1.76 0 0 1-1.757-1.758c0-.97.788-1.758 1.757-1.758.97 0 1.758.788 1.758 1.758a1.76 1.76 0 0 1-1.758 1.757zm-5.859 9.374a5.28 5.28 0 0 1-5.273-5.273 5.28 5.28 0 0 1 5.273-5.273 5.28 5.28 0 0 1 5.273 5.273 5.28 5.28 0 0 1-5.273 5.273zM17.07 0H2.93A2.933 2.933 0 0 0 0 2.93v14.14A2.933 2.933 0 0 0 2.93 20h14.14A2.933 2.933 0 0 0 20 17.07V2.93A2.933 2.933 0 0 0 17.07 0z"/></g><g><path fill="#7d7d7d" d="M15.898 3.516a.586.586 0 1 0 .001 1.172.586.586 0 0 0 0-1.172z"/></g><g><path fill="#7d7d7d" d="M10.04 5.86a4.107 4.107 0 0 0-4.103 4.1 4.107 4.107 0 0 0 4.102 4.103 4.107 4.107 0 0 0 4.102-4.102 4.107 4.107 0 0 0-4.102-4.102z"/></g></g></g></svg>