<svg xmlns="http://www.w3.org/2000/svg" width="23" height="15" viewBox="0 0 23 15"><g><g><path fill="#c8c8c8" d="M12.367 9.537c-.304.25-.703.388-1.12.388-.42 0-.818-.137-1.122-.386l-1.75-1.443L0 14.86v.021c0 .065.055.12.12.12h22.191a.12.12 0 0 0 .119-.12v-.02l-8.368-6.723zm2.427-2.002l7.636 6.135V1.234zM0 1.193v12.474l7.643-6.174zm11.243 7.803h.005c.169 0 .336-.049.471-.138l.037-.024.025-.016.427-.353L22.406.049A.12.12 0 0 0 22.311 0H.119a.115.115 0 0 0-.074.027l10.67 8.794a.836.836 0 0 0 .528.175z"/></g></g></svg>