<svg xmlns="http://www.w3.org/2000/svg" width="27" height="49" viewBox="0 0 27 49"><g><g><path fill="#dcdcdc" d="M25.503 43.256H2.16V5.743h23.344zm-10.438 3.95h-2.467a1.416 1.416 0 1 1 0-2.831h2.467a1.416 1.416 0 1 1 0 2.831zM4.518 1.052a.789.789 0 1 1 0 1.578.789.789 0 0 1 0-1.578zm2.235.296a.493.493 0 1 1 0 .987.493.493 0 0 1 0-.987zm4.714.742h4.728a.309.309 0 0 1 0 .616h-4.728a.308.308 0 0 1 0-.616zM23.465 0H4.197A3.534 3.534 0 0 0 .663 3.534v41.932A3.534 3.534 0 0 0 4.197 49h19.268a3.534 3.534 0 0 0 3.536-3.534V3.534A3.535 3.535 0 0 0 23.465 0z"/></g></g></svg>