<svg xmlns="http://www.w3.org/2000/svg" width="23" height="20" viewBox="0 0 23 20"><g><g><g><g><path fill="#3d3d3d" d="M1.022 1.63H3.36l3.329 12.038a.815.815 0 0 0 .788.598h10.23c.327 0 .612-.19.748-.489l3.723-8.56a.825.825 0 0 0-.068-.774.81.81 0 0 0-.68-.367H10.126a.818.818 0 0 0-.815.815c0 .449.367.815.815.815H20.18l-3.017 6.93H8.087L4.76.598A.815.815 0 0 0 3.97 0H1.022a.818.818 0 0 0-.815.815c0 .449.367.815.815.815z"/></g><g><path fill="#3d3d3d" d="M6.702 20a1.85 1.85 0 0 0 1.847-1.848 1.85 1.85 0 0 0-1.847-1.848 1.85 1.85 0 0 0-1.848 1.848A1.85 1.85 0 0 0 6.702 20z"/></g><g><path fill="#3d3d3d" d="M18.25 20h.136c.49-.04.938-.258 1.264-.639.326-.367.475-.842.448-1.345a1.852 1.852 0 0 0-1.97-1.712A1.851 1.851 0 0 0 18.25 20z"/></g></g></g></g></svg>