<svg xmlns="http://www.w3.org/2000/svg" width="22" height="22" viewBox="0 0 22 22"><g><g><path d="M16.984 19.253c-.14.101-.283.2-.427.294l-.2.128c-.189.117-.381.228-.577.332l-.13.067c-.45.23-.917.43-1.396.59l-.05.018c-.251.083-.505.157-.762.22h-.002c-.26.065-.522.118-.786.162-.007 0-.014.002-.022.004-.248.04-.498.07-.75.091l-.133.01c-.249.019-.498.031-.749.031-.254 0-.506-.012-.758-.031l-.13-.01a10.345 10.345 0 0 1-.756-.093l-.034-.006a10.162 10.162 0 0 1-1.556-.389l-.047-.016c-.252-.085-.5-.18-.745-.285l-.005-.002c-.231-.1-.458-.21-.682-.327l-.088-.045a10.28 10.28 0 0 1-.775-.462c-.182-.119-.361-.242-.536-.373l-.053-.042.039-.021 3.162-1.726c.544-.296.882-.866.882-1.485v-1.441l-.092-.111c-.009-.01-.874-1.062-1.2-2.487l-.037-.158-.136-.088a.663.663 0 0 1-.308-.557V9.627c0-.186.079-.36.223-.49l.132-.119V6.79l-.004-.052c0-.01-.119-.972.559-1.744C8.633 4.334 9.625 4 11 4c1.37 0 2.358.332 2.938.986.677.765.566 1.745.566 1.753l-.004 2.28.132.12c.144.129.223.303.223.489v1.418a.668.668 0 0 1-.473.63l-.198.06-.064.199a7.4 7.4 0 0 1-.999 2.013c-.105.148-.207.279-.294.38l-.1.112v1.48c0 .645.359 1.225.936 1.513l3.387 1.693.064.033c-.043.033-.087.063-.13.094zM.8 11C.8 5.376 5.376.8 11 .8S21.2 5.376 21.2 11c0 3.03-1.33 5.756-3.436 7.625a2.998 2.998 0 0 0-.357-.215l-3.387-1.693a.887.887 0 0 1-.492-.797v-1.183c.078-.097.16-.206.246-.327.439-.619.79-1.308 1.047-2.049.507-.24.834-.745.834-1.315V9.628c0-.347-.127-.684-.355-.948V6.813c.02-.207.094-1.379-.753-2.345C13.81 3.626 12.617 3.2 11 3.2c-1.616 0-2.81.426-3.547 1.267-.847.967-.774 2.138-.753 2.346V8.68c-.227.264-.355.6-.355.947v1.418c0 .44.198.851.536 1.129.324 1.269.991 2.23 1.237 2.555v1.158a.892.892 0 0 1-.464.783L4.49 18.395c-.101.055-.201.119-.301.19A10.176 10.176 0 0 1 .8 11zM22 11c0-6.065-4.935-11-11-11S0 4.935 0 11c0 3.204 1.378 6.091 3.57 8.103l-.01.01.357.3c.023.02.048.036.071.055.19.157.386.306.586.45a11.202 11.202 0 0 0 .852.558l.148.086c.245.14.496.271.752.392l.057.026c.835.388 1.727.673 2.66.842l.074.013c.29.05.582.09.879.117l.108.008c.295.024.594.04.896.04.3 0 .595-.016.889-.04.037-.002.074-.004.111-.008.294-.026.585-.065.872-.114l.074-.014a10.9 10.9 0 0 0 2.623-.822l.092-.042a11.056 11.056 0 0 0 1.532-.875c.074-.05.147-.104.22-.157.175-.126.348-.256.515-.393.038-.03.078-.056.114-.087l.366-.305-.01-.01A10.972 10.972 0 0 0 22 11z"/></g></g></svg>