<svg xmlns="http://www.w3.org/2000/svg" width="20" height="20" viewBox="0 0 20 20"><g><g><path fill="#7d7d7d" d="M16.252 14.225l-.465.466c-.658.658-2.172.606-3.145.418-3.234-.625-7.005-4.28-7.732-7.445-.36-1.568-.162-2.931.358-3.452l.465-.465a.659.659 0 0 1 .931 0L8.525 5.61a.652.652 0 0 1 .193.465.65.65 0 0 1-.193.464l-.465.466a1.319 1.319 0 0 0 0 1.861l3.074 3.034a1.315 1.315 0 0 0 1.861 0l.465-.465a.688.688 0 0 1 .931 0l1.861 1.86a.657.657 0 0 1 0 .931zM10 0C4.507 0 0 4.507 0 10c0 1.813.489 3.577 1.416 5.121L0 20l4.879-1.416A9.933 9.933 0 0 0 10 20c5.493 0 10-4.507 10-10S15.493 0 10 0z"/></g></g></svg>